<svg width="210" height="210" viewBox="0 0 210 210" fill="none" xmlns="http://www.w3.org/2000/svg">
<rect width="210" height="210" rx="65" fill="#1976D2"/>
<path d="M171 77.4L160.697 83.4L136.455 42L146.758 36L171 77.4ZM97.6667 71.4L115.848 102.6L152.818 81.6L134.636 50.4L97.6667 71.4ZM107.364 100.2L95.2424 79.2L69.1818 94.2L81.303 115.2L107.364 100.2ZM51 111.6L57.0606 121.8L72.8182 112.8L66.7576 102.6L51 111.6ZM111.606 108L109.788 105.6L83.7273 120.6L85.5455 123C86.7576 124.8 88.5758 126.6 90.3939 127.8L80.697 156H92.8182L101.303 130.2H101.909L111 156H123.121L111.606 122.4C114.636 118.2 114.636 112.8 111.606 108Z" fill="white"/>
</svg>
